<svg width="210" height="210" viewBox="0 0 110 110" fill="none" xmlns="http://www.w3.org/2000/svg">
<path fill-rule="evenodd" clip-rule="evenodd" d="M53.2522 57.2854L9 34.3349V76C9 78.7614 11.2386 81 14 81H96C98.7614 81 101 78.7614 101 76V34.4588L56.9954 57.2784C56.4909 57.7769 55.7965 58.0354 55.0956 57.9958C54.4151 58.0213 53.7446 57.7668 53.2522 57.2854ZM55.117 52.6202L98.8911 29.9201C98.0749 29.3407 97.0772 29 96 29H14C12.9674 29 12.008 29.313 11.2113 29.8493L55.117 52.6202Z" fill="url(#paint0_linear_1_21)"/>
<path d="M41.3008 65.8418H43.1582V73.3711H48.4844V75H41.3008V65.8418ZM49.7324 70.3652C49.7324 69.7129 49.8555 69.1055 50.1016 68.543C50.3477 67.9766 50.7031 67.4863 51.168 67.0723C51.6367 66.6543 52.207 66.3262 52.8789 66.0879C53.5547 65.8496 54.3184 65.7305 55.1699 65.7305C55.916 65.7305 56.5996 65.8066 57.2207 65.959C57.8457 66.1074 58.4258 66.3359 58.9609 66.6445L58.1055 68.0508C57.9453 67.9453 57.7598 67.8516 57.5488 67.7695C57.3418 67.6875 57.1191 67.6191 56.8809 67.5645C56.6465 67.5059 56.4023 67.4609 56.1484 67.4297C55.8984 67.3984 55.6504 67.3828 55.4043 67.3828C54.8105 67.3828 54.2812 67.457 53.8164 67.6055C53.3516 67.75 52.959 67.9551 52.6387 68.2207C52.3223 68.4824 52.0801 68.7969 51.9121 69.1641C51.748 69.5273 51.666 69.9277 51.666 70.3652C51.666 70.8184 51.752 71.2344 51.9238 71.6133C52.0957 71.9922 52.3438 72.3203 52.668 72.5977C52.9961 72.8711 53.3945 73.0859 53.8633 73.2422C54.3359 73.3945 54.8691 73.4707 55.4629 73.4707C55.7324 73.4707 56 73.4512 56.2656 73.4121C56.5312 73.373 56.7871 73.3203 57.0332 73.2539C57.2832 73.1836 57.5234 73.1016 57.7539 73.0078C57.9844 72.9102 58.1992 72.8047 58.3984 72.6914L59.2539 74.0977C58.7539 74.418 58.1758 74.6699 57.5195 74.8535C56.8633 75.0332 56.166 75.123 55.4277 75.123C54.4863 75.123 53.6602 75.002 52.9492 74.7598C52.2383 74.5137 51.6445 74.1777 51.168 73.752C50.6914 73.3223 50.332 72.8184 50.0898 72.2402C49.8516 71.6582 49.7324 71.0332 49.7324 70.3652ZM64.0645 67.4707H60.6836V65.8418H69.3027V67.4707H65.9219V75H64.0645V67.4707Z" fill="#F5F5F5"/>
<defs>
<linearGradient id="paint0_linear_1_21" x1="55" y1="29" x2="55" y2="81" gradientUnits="userSpaceOnUse">
<stop stop-color="#7F00FF"/>
<stop offset="1" stop-color="#0038FF"/>
</linearGradient>
</defs>
</svg>
