<svg width="92" height="52" viewBox="0 0 92 52" fill="none" xmlns="http://www.w3.org/2000/svg">
<path fill-rule="evenodd" clip-rule="evenodd" d="M44.2522 28.2854L0 5.33486V47C0 49.7614 2.23858 52 5 52H87C89.7614 52 92 49.7614 92 47V5.45883L47.9954 28.2784C47.4909 28.7769 46.7965 29.0354 46.0956 28.9958C45.4151 29.0213 44.7446 28.7668 44.2522 28.2854ZM46.117 23.6202L89.8911 0.92012C89.0749 0.340657 88.0772 0 87 0H5C3.96744 0 3.00799 0.312993 2.21134 0.849278L46.117 23.6202Z" fill="url(#paint0_linear_1_19)"/>
<path d="M32.3008 36.8418H34.1582V44.3711H39.4844V46H32.3008V36.8418ZM40.7324 41.3652C40.7324 40.7129 40.8555 40.1055 41.1016 39.543C41.3477 38.9766 41.7031 38.4863 42.168 38.0723C42.6367 37.6543 43.207 37.3262 43.8789 37.0879C44.5547 36.8496 45.3184 36.7305 46.1699 36.7305C46.916 36.7305 47.5996 36.8066 48.2207 36.959C48.8457 37.1074 49.4258 37.3359 49.9609 37.6445L49.1055 39.0508C48.9453 38.9453 48.7598 38.8516 48.5488 38.7695C48.3418 38.6875 48.1191 38.6191 47.8809 38.5645C47.6465 38.5059 47.4023 38.4609 47.1484 38.4297C46.8984 38.3984 46.6504 38.3828 46.4043 38.3828C45.8105 38.3828 45.2812 38.457 44.8164 38.6055C44.3516 38.75 43.959 38.9551 43.6387 39.2207C43.3223 39.4824 43.0801 39.7969 42.9121 40.1641C42.748 40.5273 42.666 40.9277 42.666 41.3652C42.666 41.8184 42.752 42.2344 42.9238 42.6133C43.0957 42.9922 43.3438 43.3203 43.668 43.5977C43.9961 43.8711 44.3945 44.0859 44.8633 44.2422C45.3359 44.3945 45.8691 44.4707 46.4629 44.4707C46.7324 44.4707 47 44.4512 47.2656 44.4121C47.5312 44.373 47.7871 44.3203 48.0332 44.2539C48.2832 44.1836 48.5234 44.1016 48.7539 44.0078C48.9844 43.9102 49.1992 43.8047 49.3984 43.6914L50.2539 45.0977C49.7539 45.418 49.1758 45.6699 48.5195 45.8535C47.8633 46.0332 47.166 46.123 46.4277 46.123C45.4863 46.123 44.6602 46.002 43.9492 45.7598C43.2383 45.5137 42.6445 45.1777 42.168 44.752C41.6914 44.3223 41.332 43.8184 41.0898 43.2402C40.8516 42.6582 40.7324 42.0332 40.7324 41.3652ZM55.0645 38.4707H51.6836V36.8418H60.3027V38.4707H56.9219V46H55.0645V38.4707Z" fill="#F5F5F5"/>
<defs>
<linearGradient id="paint0_linear_1_19" x1="46" y1="0" x2="46" y2="52" gradientUnits="userSpaceOnUse">
<stop stop-color="#7F00FF"/>
<stop offset="1" stop-color="#0038FF"/>
</linearGradient>
</defs>
</svg>
